<svg width="72" height="17" viewBox="0 0 72 17" fill="none" xmlns="http://www.w3.org/2000/svg">
<path d="M7.23584 16.3693L2.76984 10.9793L7.21384 5.80926H10.0958L4.99184 11.6173L5.10184 10.2313L10.3158 16.3693H7.23584ZM0.525838 16.3693V0.529262H2.94584V16.3693H0.525838ZM11.8374 16.3693V5.80926H14.2574V16.3693H11.8374ZM13.0474 3.87326C12.6368 3.87326 12.2921 3.73393 12.0134 3.45526C11.7494 3.1766 11.6174 2.83193 11.6174 2.42126C11.6174 2.0106 11.7494 1.66593 12.0134 1.38726C12.2921 1.10859 12.6368 0.969262 13.0474 0.969262C13.4728 0.969262 13.8174 1.10859 14.0814 1.38726C14.3454 1.66593 14.4774 2.0106 14.4774 2.42126C14.4774 2.83193 14.3454 3.1766 14.0814 3.45526C13.8174 3.73393 13.4728 3.87326 13.0474 3.87326ZM24.1217 16.3693L19.6557 10.9793L24.0997 5.80926H26.9817L21.8777 11.6173L21.9877 10.2313L27.2017 16.3693H24.1217ZM17.4117 16.3693V0.529262H19.8317V16.3693H17.4117ZM33.3909 16.5893C32.3642 16.5893 31.4329 16.3473 30.5969 15.8633C29.7609 15.3646 29.0936 14.6973 28.5949 13.8613C28.1109 13.0253 27.8689 12.0939 27.8689 11.0673C27.8689 10.0406 28.1109 9.1166 28.5949 8.29526C29.0936 7.47393 29.7609 6.82126 30.5969 6.33726C31.4329 5.8386 32.3642 5.58926 33.3909 5.58926C34.4322 5.58926 35.3709 5.83126 36.2069 6.31526C37.0429 6.79926 37.7029 7.45926 38.1869 8.29526C38.6856 9.1166 38.9349 10.0406 38.9349 11.0673C38.9349 12.0939 38.6856 13.0253 38.1869 13.8613C37.7029 14.6973 37.0429 15.3646 36.2069 15.8633C35.3709 16.3473 34.4322 16.5893 33.3909 16.5893ZM33.3909 14.2573C33.9922 14.2573 34.5202 14.1253 34.9749 13.8613C35.4442 13.5826 35.8036 13.2013 36.0529 12.7173C36.3169 12.2333 36.4489 11.6833 36.4489 11.0673C36.4489 10.4513 36.3169 9.9086 36.0529 9.43926C35.7889 8.96993 35.4296 8.60326 34.9749 8.33926C34.5202 8.0606 33.9922 7.92126 33.3909 7.92126C32.8042 7.92126 32.2762 8.0606 31.8069 8.33926C31.3522 8.60326 30.9929 8.96993 30.7289 9.43926C30.4796 9.9086 30.3549 10.4513 30.3549 11.0673C30.3549 11.6833 30.4796 12.2333 30.7289 12.7173C30.9929 13.2013 31.3522 13.5826 31.8069 13.8613C32.2762 14.1253 32.8042 14.2573 33.3909 14.2573ZM42.6926 16.3693V1.40926H45.1126V16.3693H42.6926ZM40.1626 8.00926V5.80926H47.6426V8.00926H40.1626ZM56.5511 16.3693L52.0851 10.9793L56.5291 5.80926H59.4111L54.3071 11.6173L54.4171 10.2313L59.6311 16.3693H56.5511ZM49.8411 16.3693V0.529262H52.2611V16.3693H49.8411ZM68.2274 16.3693L63.7614 10.9793L68.2054 5.80926H71.0874L65.9834 11.6173L66.0934 10.2313L71.3074 16.3693H68.2274ZM61.5174 16.3693V0.529262H63.9374V16.3693H61.5174Z" fill="#212121"/>
</svg>
